Coordinates
version=1
nRows=12
nColumns=46
inDegrees=yes

Units are S.I. units (second, meters, Newtons, ...)
Angles are in degrees.

endheader
time	pelvis_tilt	pelvis_list	pelvis_rotation	pelvis_tx	pelvis_ty	pelvis_tz	bb_angle	bb_tx	bb_ty	bb_tz	hip_flexion_r	hip_adduction_r	hip_rotation_r	knee_angle_r	knee_angle_r_beta	ankle_angle_r	subtalar_angle_r	mtp_angle_r	crank_angle_r	hip_flexion_l	hip_adduction_l	hip_rotation_l	knee_angle_l	knee_angle_l_beta	ankle_angle_l	subtalar_angle_l	mtp_angle_l	crank_angle_l	lumbar_extension	lumbar_bending	lumbar_rotation	arm_flex_r	arm_add_r	arm_rot_r	elbow_flex_r	pro_sup_r	wrist_flex_r	wrist_dev_r	arm_flex_l	arm_add_l	arm_rot_l	elbow_flex_l	pro_sup_l	wrist_flex_l	wrist_dev_l
      0.00000000	    -20.69180044	      5.27791499	      6.21231322	      0.13186954	      1.10924050	     -0.29114626	      0.00000000	      0.50000000	      0.00000000	      0.25000000	     50.26394862	    -11.79206602	      1.34500179	     57.89501721	      1.01045867	      5.34707592	    -10.61285894	      0.00000000	      0.00000000	     91.36067126	     -4.83370665	     -5.77029463	     97.34754168	      1.69903512	     20.89817667	      3.51541473	      0.00000000	      0.00000000	    -37.82081628	     -1.10336153	     -9.85495729	     76.60567851	     -3.20351581	     35.51723610	     24.80291252	     35.68923509	      0.00000000	      0.00000000	     75.70066972	    -12.50587782	     42.37621899	     25.78866744	     37.84100462	      0.00000000	      0.00000000
      0.00500000	    -20.70490620	      5.25634916	      6.21793771	      0.13189926	      1.10921152	     -0.29114725	      0.00000000	      0.50000000	      0.00000000	      0.25000000	     50.26708245	    -11.77163356	      1.33584881	     57.89830414	      1.01051604	      5.34439836	    -10.66212129	      0.00000000	      0.00000000	     91.37176843	     -4.82316786	     -5.74157170	     97.34134148	      1.69892691	     20.91373122	      3.51538865	      0.00000000	      0.00000000	    -37.78199319	     -1.07471375	     -9.86693738	     76.61245627	     -2.90828875	     34.56279744	     24.43649991	     36.49343285	      0.00000000	      0.00000000	     75.53513511	    -12.18546585	     40.65365849	     25.69134595	     38.50845056	      0.00000000	      0.00000000
      0.01000000	    -20.68581899	      5.24631003	      6.19631523	      0.13191205	      1.10923373	     -0.29111648	      0.00000000	      0.50000000	      0.00000000	      0.25000000	     50.24161907	    -11.74807746	      1.33402382	     57.89638228	      1.01048250	      5.35461113	    -10.65537607	      0.00000000	      0.00000000	     91.34015115	     -4.85052534	     -5.73737113	     97.33310811	      1.69878321	     20.97346277	      3.54871139	      0.00000000	      0.00000000	    -37.78981355	     -1.06864979	     -9.87561907	     76.63717752	     -2.85110380	     34.68898265	     24.33865795	     36.80141609	      0.00000000	      0.00000000	     75.54686679	    -12.16381402	     40.60353455	     25.60742288	     38.78774383	      0.00000000	      0.00000000
      0.01500000	    -20.68340551	      5.30167905	      6.24101075	      0.13198247	      1.10935813	     -0.29106868	      0.00000000	      0.50000000	      0.00000000	      0.25000000	     50.20616939	    -11.80697896	      1.34625870	     57.87423672	      1.01009598	      5.38333770	    -10.68686134	      0.00000000	      0.00000000	     91.28672290	     -4.82120398	     -5.81541493	     97.28160855	      1.69788437	     20.98455532	      3.55424451	      0.00000000	      0.00000000	    -37.82060057	     -1.13835166	     -9.84285313	     76.58963670	     -3.47686643	     36.11347197	     24.63239904	     38.29120235	      0.00000000	      0.00000000	     75.93070533	    -12.40157248	     42.88767218	     25.01504447	     40.47273914	      0.00000000	      0.00000000
      0.02000000	    -20.67759617	      5.26435856	      6.22595175	      0.13198123	      1.10943127	     -0.29103600	      0.00000000	      0.50000000	      0.00000000	      0.25000000	     50.17294724	    -11.75062156	      1.33880459	     57.83511162	      1.00941312	      5.37844415	    -10.69495509	      0.00000000	      0.00000000	     91.26905480	     -4.83591171	     -5.78743936	     97.25611212	      1.69743937	     21.00284397	      3.53519017	      0.00000000	      0.00000000	    -37.82583318	     -1.09308380	     -9.81495543	     76.62426323	     -3.30436211	     35.58632314	     24.43102516	     38.38704990	      0.00000000	      0.00000000	     75.88227802	    -12.27895334	     42.31232067	     24.99319890	     40.57397582	      0.00000000	      0.00000000
      0.02500000	    -20.71718960	      5.31070806	      6.24331510	      0.13195203	      1.10932433	     -0.29116598	      0.00000000	      0.50000000	      0.00000000	      0.25000000	     50.24687014	    -11.82924506	      1.35215228	     57.88996599	      1.01037051	      5.43059718	    -10.60149968	      0.00000000	      0.00000000	     91.29535638	     -4.79038831	     -5.82889000	     97.24112829	      1.69717786	     20.98740736	      3.47953705	      0.00000000	      0.00000000	    -37.76683857	     -1.14530449	     -9.86807137	     76.58889750	     -3.09787006	     35.10187492	     24.24945870	     38.54686595	      0.00000000	      0.00000000	     75.86375389	    -12.06766147	     41.70643739	     24.90363730	     40.74378232	      0.00000000	      0.00000000
      0.03000000	    -20.71687431	      5.32215029	      6.24204567	      0.13197538	      1.10936460	     -0.29115286	      0.00000000	      0.50000000	      0.00000000	      0.25000000	     50.23766492	    -11.82839251	      1.37036415	     57.88327335	      1.01025370	      5.44136920	    -10.61792406	      0.00000000	      0.00000000	     91.26672090	     -4.78594384	     -5.83862015	     97.21690190	      1.69675503	     21.05423180	      3.52211952	      0.00000000	      0.00000000	    -37.77407291	     -1.14983440	     -9.82489467	     76.55555233	     -3.30843590	     35.49482540	     24.38936071	     39.26769009	      0.00000000	      0.00000000	     75.99724306	    -12.14464411	     42.51253206	     24.65174225	     41.63334990	      0.00000000	      0.00000000
      0.03500000	    -20.68666703	      5.27153004	      6.14964836	      0.13206306	      1.10941539	     -0.29092322	      0.00000000	      0.50000000	      0.00000000	      0.25000000	     50.20061882	    -11.68502605	      1.40570762	     57.85784428	      1.00980988	      5.28441341	    -10.83798162	      0.00000000	      0.00000000	     91.22242813	     -4.91811091	     -5.78100877	     97.23277270	      1.69703202	     21.25025730	      3.79067992	      0.00000000	      0.00000000	    -37.80716271	     -1.11954312	     -9.87085349	     76.44770791	     -2.68770847	     33.45788665	     24.42829503	     39.49007214	      0.00000000	      0.00000000	     75.67388093	    -11.85458066	     39.76080581	     24.94173347	     41.61705249	      0.00000000	      0.00000000
      0.04000000	    -20.75844408	      5.31485902	      6.23902822	      0.13199067	      1.10936161	     -0.29117639	      0.00000000	      0.50000000	      0.00000000	      0.25000000	     50.27366404	    -11.82407761	      1.36322362	     57.87526786	      1.01011398	      5.44476443	    -10.60347605	      0.00000000	      0.00000000	     91.27817547	     -4.77742895	     -5.83840652	     97.18109237	      1.69613003	     21.08324926	      3.46545438	      0.00000000	      0.00000000	    -37.70670040	     -1.13492579	     -9.82067308	     76.54378370	     -2.65433708	     33.15547473	     23.83856714	     39.66531345	      0.00000000	      0.00000000	     75.77708542	    -11.43816220	     39.56694723	     24.49934749	     41.83898505	      0.00000000	      0.00000000
      0.04500000	    -20.74298754	      5.31094083	      6.23971281	      0.13197118	      1.10938570	     -0.29117399	      0.00000000	      0.50000000	      0.00000000	      0.25000000	     50.25493977	    -11.82057250	      1.36323851	     57.87751449	      1.01015319	      5.43319069	    -10.61991647	      0.00000000	      0.00000000	     91.24977743	     -4.76249074	     -5.82222793	     97.16088765	      1.69577739	     21.13203694	      3.49563014	      0.00000000	      0.00000000	    -37.73265512	     -1.14239190	     -9.76806656	     76.51938412	     -3.11846775	     34.60708977	     24.17346354	     40.21576476	      0.00000000	      0.00000000	     76.10933851	    -11.75211111	     41.88896399	     24.20535869	     42.59556210	      0.00000000	      0.00000000
      0.05000000	    -20.78388013	      5.28528397	      6.22141860	      0.13201471	      1.10935114	     -0.29114482	      0.00000000	      0.50000000	      0.00000000	      0.25000000	     50.29141682	    -11.77511132	      1.37299922	     57.86802997	      1.00998765	      5.39225057	    -10.70765766	      0.00000000	      0.00000000	     91.27983394	     -4.78129076	     -5.79734782	     97.15013626	      1.69558975	     21.18065067	      3.50556240	      0.00000000	      0.00000000	    -37.66060273	     -1.11820139	     -9.77516664	     76.48772962	     -2.44291668	     32.17977448	     23.78744337	     40.31073609	      0.00000000	      0.00000000	     75.73741662	    -11.10113490	     38.56439927	     24.37225181	     42.37617864	      0.00000000	      0.00000000
      0.05500000	    -20.75390595	      5.32291126	      6.21185865	      0.13199071	      1.10933217	     -0.29123564	      0.00000000	      0.50000000	      0.00000000	      0.25000000	     50.27950923	    -11.82027625	      1.38670322	     57.90886998	      1.01070045	      5.51521618	    -10.60714087	      0.00000000	      0.00000000	     91.22687858	     -4.75984332	     -5.82300819	     97.13837448	      1.69538446	     21.27127485	      3.55823871	      0.00000000	      0.00000000	    -37.68573216	     -1.17101716	     -9.71178648	     76.50486943	     -2.97119616	     33.90463155	     23.89502120	     41.05207351	      0.00000000	      0.00000000	     76.16118045	    -11.45364001	     41.40335430	     23.91356497	     43.35322694	      0.00000000	      0.00000000
